<svg version="1.1" id="Layer_1" xmlns="http://www.w3.org/2000/svg" xmlns:xlink="http://www.w3.org/1999/xlink" x="0px" y="0px"
	 width="100%" viewBox="0 0 656 384" enable-background="new 0 0 656 384" xml:space="preserve">
<path fill="#000000" opacity="1.000000" stroke="none" 
	d="
M381.865723,63.507473 
	C381.844635,60.733021 381.746338,58.398998 381.859100,56.075226 
	C381.959991,53.996422 381.132141,51.431736 383.381805,50.129681 
	C385.624115,48.831871 387.483002,50.638794 389.275879,51.761177 
	C401.966949,59.706055 414.636993,67.684509 427.316620,75.647697 
	C432.106293,78.655746 436.837494,81.764900 441.720581,84.613312 
	C444.955139,86.500092 446.512543,88.998695 446.198914,92.770157 
	C446.020264,94.918457 446.046722,97.102104 446.194641,99.255142 
	C446.436615,102.775986 445.092194,105.131874 442.029236,107.049500 
	C423.985229,118.346443 406.050018,129.817047 388.050934,141.186050 
	C383.625153,143.981567 382.200684,143.226257 381.864349,138.131409 
	C381.842438,137.799774 381.896667,137.458435 381.840973,137.134399 
	C380.421143,128.872818 383.627319,123.704224 391.172699,119.627846 
	C403.153839,113.155006 414.490326,105.488228 426.088531,98.308777 
	C427.051941,97.712418 427.931976,96.981415 429.463379,95.867210 
	C422.319061,91.485046 415.598083,87.337151 408.851593,83.231163 
	C401.319397,78.646996 393.753906,74.117599 386.225342,69.527527 
	C384.098694,68.230919 381.807159,66.994400 381.865723,63.507473 
M397.807190,129.287415 
	C410.875610,121.006569 423.963470,112.756187 437.004059,104.431694 
	C443.290375,100.418785 443.126465,91.145439 436.793182,87.221634 
	C421.379913,77.672310 405.979248,68.102676 390.547089,58.584026 
	C389.522552,57.952091 388.620270,56.613976 386.983795,57.431446 
	C386.124115,61.868458 387.641815,64.760536 391.725830,67.136253 
	C404.807617,74.746063 417.659119,82.751228 430.615082,90.578011 
	C437.181335,94.544746 437.241852,97.144058 430.768280,101.140274 
	C417.604218,109.266571 404.521027,117.529907 391.211945,125.411560 
	C387.042358,127.880783 385.615295,130.685669 387.466736,135.653381 
	C390.775787,133.613953 393.980377,131.638931 397.807190,129.287415 
z"/>
<path fill="#000000" opacity="1.000000" stroke="none" 
	d="
M322.504425,53.469978 
	C325.563660,52.006489 327.955566,48.256699 331.164368,50.217690 
	C333.744019,51.794182 331.842316,55.496510 332.347717,58.193272 
	C333.573792,64.735039 330.584595,68.432625 324.960846,71.606339 
	C313.082550,78.309761 301.599976,85.714973 289.967987,92.853394 
	C288.574371,93.708633 287.261139,94.694824 285.910767,95.620232 
	C286.512787,97.679855 288.214386,98.222374 289.563751,99.058647 
	C301.871765,106.686394 314.105316,114.443565 326.590088,121.772018 
	C331.037170,124.382416 333.224792,127.496811 332.340454,132.585464 
	C331.765808,135.891815 334.182281,140.366928 330.673981,142.306900 
	C327.401001,144.116745 324.768677,140.174149 322.097137,138.508133 
	C305.714539,128.291702 289.503662,117.800018 273.134521,107.561691 
	C269.846283,105.505013 268.911926,103.094589 268.298920,99.205986 
	C266.752502,89.396645 271.439606,84.704269 279.340424,80.234520 
	C293.957977,71.964943 307.943970,62.579021 322.504425,53.469978 
M291.225708,113.228500 
	C303.030060,120.721466 314.834442,128.214432 326.884949,135.863663 
	C328.695557,130.413284 326.862671,127.750626 323.077576,125.467590 
	C309.826355,117.474937 296.683075,109.301331 283.565369,101.090134 
	C277.143677,97.070381 277.257172,94.493477 283.825134,90.500565 
	C297.048645,82.461456 310.230927,74.351463 323.560974,66.492538 
	C327.554779,64.137947 328.575836,61.318077 326.828400,56.592354 
	C309.446014,67.433258 292.339752,77.984787 275.383545,88.772102 
	C271.826752,91.034866 272.350464,100.996162 275.909454,103.398376 
	C280.735962,106.656113 285.704468,109.703476 291.225708,113.228500 
z"/>
<path fill="#000000" opacity="1.000000" stroke="none" 
	d="
M365.393250,42.504028 
	C366.671143,39.252464 365.887543,34.864883 370.673737,34.744930 
	C379.219818,34.530735 381.513062,33.526581 378.638306,43.823986 
	C368.590485,79.815918 359.007111,115.937569 349.260254,152.013443 
	C347.714783,157.733734 343.128571,160.027771 337.490540,157.891449 
	C333.954376,156.551544 335.229492,153.875046 335.836853,151.598404 
	C339.604126,137.476959 343.490845,123.387444 347.313019,109.280579 
	C353.308105,87.153740 359.283478,65.021568 365.393250,42.504028 
M355.531738,110.114822 
	C361.808685,86.716141 368.085602,63.317459 374.362549,39.918777 
	C373.485291,39.686489 372.608032,39.454205 371.730743,39.221916 
	C360.945312,76.752190 350.972107,114.508293 340.498322,153.150528 
	C342.361877,152.501511 343.338196,152.442856 343.475250,152.073105 
	C348.451996,138.647385 351.189301,124.576027 355.531738,110.114822 
z"/>
<path fill="#000000" opacity="1.000000" stroke="none" 
	d="
M364.124725,335.946533 
	C360.556915,341.478058 356.522369,346.040619 351.272919,349.500397 
	C348.926086,351.047150 347.263947,351.196259 345.435333,348.669647 
	C343.723114,346.303986 343.686676,344.700836 346.123657,342.861420 
	C349.197083,340.541565 351.679504,337.645416 353.419403,334.129578 
	C354.880035,331.177979 354.937683,329.222626 351.463501,327.318420 
	C345.462097,324.028992 344.122314,316.918427 347.890747,311.448608 
	C351.541901,306.148926 359.064697,304.910309 364.183472,308.959137 
	C368.377960,312.276886 369.225800,317.033020 368.756409,321.986786 
	C368.298523,326.818695 366.793152,331.405609 364.124725,335.946533 
z"/>
<path fill="#000000" opacity="1.000000" stroke="none" 
	d="
M410.075897,214.829422 
	C410.068634,215.966644 410.077698,216.632858 410.045410,217.297073 
	C409.939789,219.470474 409.472504,221.356689 406.668457,221.151550 
	C404.135681,220.966248 403.939545,219.056137 403.921021,217.177246 
	C403.866943,211.687607 403.942657,206.196564 403.871948,200.707291 
	C403.815063,196.287262 404.769165,191.654770 400.906311,188.049774 
	C406.281891,185.943420 406.585480,186.078293 411.731781,192.233353 
	C414.492828,195.535583 417.267242,198.826630 420.017181,202.100800 
	C428.061157,198.740982 428.907745,186.240311 440.601776,186.749130 
	C434.861237,196.624573 438.317810,206.711960 437.328369,216.411926 
	C437.124146,218.413818 437.982330,221.201370 434.535278,221.121399 
	C431.286316,221.046005 431.725830,218.400406 431.698883,216.315826 
	C431.632294,211.167068 431.677094,206.016876 431.677094,200.177429 
	C427.124939,203.428070 424.891235,208.217545 420.935272,211.375427 
	C416.525208,208.508286 414.616455,203.748123 410.073303,200.110870 
	C410.073303,205.283646 410.073303,209.820572 410.075897,214.829422 
z"/>
<path fill="#000000" opacity="1.000000" stroke="none" 
	d="
M392.239624,214.835205 
	C392.233490,215.977203 392.224457,216.642899 392.221497,217.308640 
	C392.211670,219.532333 391.720490,221.359924 388.915344,221.169373 
	C386.162445,220.982376 386.546631,218.945648 386.550354,217.118362 
	C386.561676,211.548294 386.554474,205.978180 386.554474,198.987137 
	C382.371979,203.890854 379.179413,207.633957 375.732208,211.675613 
	C371.177246,208.535187 369.132568,203.477997 364.317352,199.762772 
	C364.317352,205.889542 364.345123,211.297852 364.302734,216.705612 
	C364.287292,218.676315 364.536316,221.021072 361.560760,221.050171 
	C358.609222,221.079056 358.740906,218.783493 358.720123,216.778931 
	C358.675232,212.451767 358.747284,208.123108 358.678070,203.796555 
	C358.589569,198.262802 359.837494,192.503952 355.495178,187.596375 
	C359.410492,185.951401 362.024353,186.720963 364.301971,189.587265 
	C367.700653,193.864349 371.271240,198.004868 374.706635,202.128983 
	C382.590332,198.485275 383.722229,186.387985 395.168488,186.825287 
	C390.073914,196.165833 393.101593,205.434982 392.239624,214.835205 
z"/>
<path fill="#000000" opacity="1.000000" stroke="none" 
	d="
M220.901855,209.557831 
	C216.139267,219.863251 204.876236,224.710449 194.908875,221.126740 
	C192.827194,220.378281 192.808838,218.755829 192.795044,217.092484 
	C192.749420,211.595764 192.776276,206.098495 192.744980,200.601608 
	C192.725418,197.165146 193.363861,193.583969 189.932938,191.047043 
	C189.131943,190.454773 188.767227,189.059982 189.320877,186.926224 
	C197.281540,187.043289 205.509689,184.987991 213.342987,188.919220 
	C220.129532,192.325104 222.930771,200.069641 220.901855,209.557831 
M198.854218,209.944916 
	C199.061707,211.616714 197.853989,213.647537 200.161438,214.779388 
	C206.153244,217.718521 214.527954,213.255356 215.628632,206.517166 
	C216.973175,198.286102 212.533508,193.190918 204.136108,192.940994 
	C199.926514,192.815689 197.938004,194.109909 198.491333,198.655060 
	C198.909882,202.093079 198.767929,205.599350 198.854218,209.944916 
z"/>
<path fill="#000000" opacity="1.000000" stroke="none" 
	d="
M146.682037,201.331696 
	C148.760147,192.262146 154.354095,186.946243 162.524948,185.857635 
	C169.543304,184.922562 177.294830,188.937866 180.925171,195.388901 
	C184.656662,202.019699 183.819000,209.615433 178.675430,215.788528 
	C174.063705,221.323334 165.609711,223.320786 158.221573,220.621231 
	C150.393478,217.760941 146.592865,211.561325 146.682037,201.331696 
M152.301910,202.765121 
	C152.348846,203.927933 152.246674,205.119827 152.467026,206.248795 
	C153.843704,213.302048 161.360367,217.508179 168.724197,215.403366 
	C175.179794,213.558182 178.891876,205.765945 176.387009,199.318054 
	C174.590897,194.694580 170.056610,191.948883 164.387024,192.051590 
	C158.274628,192.162308 154.452271,195.313324 152.301910,202.765121 
z"/>
<path fill="#000000" opacity="1.000000" stroke="none" 
	d="
M332.773529,221.885727 
	C320.875214,220.461304 315.607208,216.328796 313.596893,207.233078 
	C311.424774,197.405411 317.915161,188.105927 328.394165,186.031311 
	C337.600281,184.208679 347.709595,191.126740 349.295044,200.334259 
	C351.218903,211.507523 345.247986,219.462433 332.773529,221.885727 
M329.277618,192.172501 
	C322.445892,194.005035 319.303741,197.395615 319.081909,203.174332 
	C318.866455,208.787567 321.840424,213.355698 326.911621,215.201080 
	C332.250549,217.143906 338.177460,215.436813 341.583160,210.867599 
	C344.417480,207.065018 344.743195,202.735199 342.797272,198.643936 
	C340.317017,193.429352 335.614410,191.644730 329.277618,192.172501 
z"/>
<path fill="#000000" opacity="1.000000" stroke="none" 
	d="
M514.394592,187.565643 
	C518.501221,185.935425 519.393433,187.873978 519.363647,191.209793 
	C519.289307,199.538666 519.385681,207.869080 519.307312,216.197891 
	C519.291382,217.896561 520.042358,220.137924 517.739014,220.982513 
	C515.453918,221.820374 513.552979,220.883835 512.012817,219.041199 
	C506.791534,212.794708 501.535065,206.577652 495.319519,199.194000 
	C495.319519,205.910797 495.364471,211.301132 495.295135,216.690002 
	C495.270782,218.579620 495.805878,221.023880 492.726807,221.137909 
	C489.379120,221.261917 489.700928,218.715851 489.677765,216.585815 
	C489.623444,211.588623 489.666992,206.590469 489.645874,201.592819 
	C489.625763,196.834747 490.473938,191.899963 486.221283,187.798691 
	C490.099640,185.880280 492.667206,186.606400 494.983490,189.376160 
	C500.737793,196.256882 506.571838,203.070877 513.009094,210.660614 
	C514.484741,202.551849 512.862915,195.135468 514.394592,187.565643 
z"/>
<path fill="#000000" opacity="1.000000" stroke="none" 
	d="
M235.607574,213.972595 
	C239.710510,216.149048 243.884384,214.596466 247.941483,215.042313 
	C249.916153,215.259308 251.929276,215.143127 253.898132,215.391068 
	C255.709152,215.619156 256.282288,216.948929 256.181366,218.656998 
	C256.088257,220.233276 255.284225,221.182434 253.709534,221.187698 
	C246.565231,221.211563 239.419861,221.231628 232.276764,221.125870 
	C230.076218,221.093307 229.722946,219.309677 229.719193,217.546997 
	C229.699753,208.405029 229.720612,199.262970 229.705978,190.120987 
	C229.702377,187.865601 230.768265,186.747513 233.025726,186.747162 
	C239.009354,186.746185 244.992996,186.730682 250.976608,186.737000 
	C252.865402,186.738998 254.172211,187.365417 254.225861,189.582397 
	C254.277786,191.728699 253.089127,192.645782 251.208710,192.741943 
	C248.057877,192.903107 244.898849,192.922104 241.742767,192.958984 
	C235.038376,193.037323 234.586517,193.626770 235.978653,200.700394 
	C239.248657,200.700394 242.532455,200.691818 245.816177,200.703751 
	C247.652832,200.710419 249.108734,201.175323 249.151718,203.433472 
	C249.193924,205.649933 247.876495,206.285553 245.973038,206.315002 
	C244.643478,206.335571 243.312241,206.322388 241.984695,206.385895 
	C236.051407,206.669785 235.319122,207.493591 235.607574,213.972595 
z"/>
<path fill="#000000" opacity="1.000000" stroke="none" 
	d="
M453.237701,218.970337 
	C449.371033,215.933212 448.138763,211.947189 447.939667,207.724106 
	C447.673462,202.079254 447.835358,196.413376 447.849274,190.756607 
	C447.854645,188.580597 448.306854,186.706146 451.125763,186.824738 
	C453.699677,186.933044 453.932281,188.842209 453.972076,190.705063 
	C454.092834,196.360306 453.981171,202.022614 454.196503,207.673172 
	C454.413574,213.369827 457.170502,215.706924 463.262970,215.769882 
	C469.755859,215.836975 472.607941,213.568817 472.849365,207.703873 
	C473.068268,202.387726 472.880951,197.056015 472.998444,191.733932 
	C473.048126,189.482620 472.703583,186.708755 476.316284,186.818909 
	C479.583527,186.918533 479.226288,189.426422 479.256042,191.547699 
	C479.312042,195.540451 479.282623,199.534531 479.273285,203.528046 
	C479.235168,219.799622 468.356323,226.421387 453.237701,218.970337 
z"/>
<path fill="#000000" opacity="1.000000" stroke="none" 
	d="
M135.380951,194.605591 
	C133.053055,193.169418 130.971527,192.258102 128.557907,192.089401 
	C122.379730,191.657578 117.374474,194.466293 115.273109,199.669418 
	C113.265266,204.640976 114.819008,209.910812 119.320290,213.396255 
	C123.558090,216.677689 130.036499,216.696548 134.685883,213.429825 
	C135.619537,212.773804 136.526718,212.080124 137.610229,211.283066 
	C140.193939,213.361801 141.907043,215.250290 138.593018,218.068024 
	C131.821823,223.825211 119.417305,222.806198 113.208183,215.921509 
	C106.683487,208.686859 107.196831,197.290070 114.342735,190.733536 
	C121.937325,183.765289 132.792969,184.092056 139.763260,191.563599 
	C139.092056,193.461761 138.445267,195.380844 135.380951,194.605591 
z"/>
<path fill="#000000" opacity="1.000000" stroke="none" 
	d="
M278.982086,193.135345 
	C286.491882,185.141052 295.442505,183.567657 303.451752,188.683441 
	C305.002930,189.674240 307.414032,190.496338 305.670868,193.223175 
	C304.170807,195.569656 302.597992,194.726593 300.601318,193.715057 
	C292.147095,189.432037 282.556976,193.507614 281.375153,201.802856 
	C280.687347,206.630341 282.093018,210.773499 286.244141,213.589966 
	C290.619904,216.558823 295.281647,216.636139 299.944855,214.260834 
	C301.399933,213.519684 302.688416,212.451523 304.151642,211.466782 
	C307.909302,213.933899 307.986237,216.140457 304.371368,218.683624 
	C297.608002,223.441849 287.877167,222.773590 281.252594,217.081284 
	C275.757751,212.359650 272.833832,201.276154 278.982086,193.135345 
z"/>
<path fill="#000000" opacity="1.000000" stroke="none" 
	d="
M360.366211,235.872925 
	C366.536438,239.142746 369.169403,243.760452 368.068085,248.752029 
	C366.938354,253.872375 362.719788,257.296906 357.362885,257.442200 
	C350.791473,257.620483 345.735535,252.850754 345.751190,246.487991 
	C345.765961,240.480820 350.744965,235.640350 356.971039,235.610260 
	C357.966370,235.605453 358.962311,235.723969 360.366211,235.872925 
z"/>
<path fill="#000000" opacity="1.000000" stroke="none" 
	d="
M585.932861,211.219421 
	C586.317566,207.568085 585.055908,205.082916 583.037109,202.621338 
	C579.382446,198.165146 576.063232,193.435349 574.214172,187.671051 
	C578.032837,185.901215 580.166687,186.809036 581.747253,190.210281 
	C583.483765,193.947235 585.621948,197.501923 588.865112,200.589111 
	C592.822021,197.885834 594.430420,193.824173 596.499146,190.129761 
	C598.628723,186.326569 598.668213,186.274002 603.841858,187.515854 
	C603.010132,192.075638 600.543030,195.959290 597.636963,199.192764 
	C593.182495,204.149124 591.395508,209.561386 592.197815,216.029633 
	C592.298645,216.842865 592.168884,217.690216 592.099915,218.517914 
	C591.951294,220.301895 590.978271,221.167557 589.170776,221.204697 
	C587.368164,221.241760 586.258362,220.418289 586.129028,218.651062 
	C585.959290,216.332458 585.989258,213.999237 585.932861,211.219421 
z"/>
<path fill="#000000" opacity="1.000000" stroke="none" 
	d="
M553.650452,199.281036 
	C554.443542,193.619217 552.243042,191.906067 547.158020,192.811386 
	C545.243103,193.152298 542.533875,193.620712 541.859192,190.597076 
	C541.327454,188.214523 542.296692,186.727753 544.969849,186.731827 
	C552.624512,186.743530 560.279114,186.729477 567.933777,186.737930 
	C569.899536,186.740097 571.043091,187.609085 571.111145,189.715103 
	C571.182800,191.934265 569.735168,192.393021 567.981995,192.823242 
	C565.215637,193.502090 561.280090,191.366211 559.838928,194.715546 
	C558.740234,197.269012 559.393250,200.597382 559.357727,203.582108 
	C559.304199,208.074783 559.352356,212.568588 559.311768,217.061508 
	C559.293457,219.092987 559.367676,221.283279 556.341614,221.151093 
	C553.708496,221.036072 553.689758,219.082550 553.679260,217.213654 
	C553.646667,211.389267 553.657104,205.564621 553.650452,199.281036 
z"/>
<path fill="#000000" opacity="1.000000" stroke="none" 
	d="
M532.028442,221.125397 
	C529.385193,220.439316 529.686462,218.576248 529.678040,216.989975 
	C529.632385,208.374878 529.632019,199.759293 529.677063,191.144196 
	C529.687134,189.220810 529.345825,186.884445 532.395630,186.859482 
	C535.350952,186.835327 535.285278,189.025116 535.290833,191.043335 
	C535.314575,199.658600 535.319519,208.274033 535.287842,216.889252 
	C535.280579,218.867401 535.454590,221.077332 532.028442,221.125397 
z"/>
</svg>